<?xml version="1.0" encoding="UTF-8" standalone="no"?>
<!DOCTYPE svg PUBLIC "-//W3C//DTD SVG 1.1//EN" "http://www.w3.org/Graphics/SVG/1.1/DTD/svg11.dtd">
<svg width="100%" height="100%" viewBox="0 0 6999 2557" version="1.1" xmlns="http://www.w3.org/2000/svg" xmlns:xlink="http://www.w3.org/1999/xlink" xml:space="preserve" xmlns:serif="http://www.serif.com/" style="fill-rule:evenodd;clip-rule:evenodd;stroke-linecap:round;stroke-linejoin:round;stroke-miterlimit:1.5;">
    <g transform="matrix(1,0,0,1,0,-11375.3)">
        <g id="Tavola-da-disegno7" serif:id="Tavola da disegno7" transform="matrix(1,0,0,1,500.168,1416.97)">
            <rect x="-500.168" y="9958.34" width="6998.76" height="2557" style="fill:none;"/>
            <g transform="matrix(1.02065,0,0,1.02065,495.942,4036.18)">
                <text x="1440.68px" y="7340.1px" style="font-family:'SukhumvitSet-Text', 'Sukhumvit Set';font-size:1041.67px;fill:rgb(164,52,58);">F</text>
                <text x="1912.55px" y="7340.1px" style="font-family:'SukhumvitSet-Text', 'Sukhumvit Set';font-size:1041.67px;fill:rgb(164,52,58);">I</text>
                <text x="2083.39px" y="7340.1px" style="font-family:'SukhumvitSet-Text', 'Sukhumvit Set';font-size:1041.67px;fill:rgb(164,52,58);">S</text>
                <text x="2570.89px" y="7340.1px" style="font-family:'SukhumvitSet-Text', 'Sukhumvit Set';font-size:1041.67px;fill:rgb(164,52,58);">P</text>
                <text x="3102.14px" y="7340.1px" style="font-family:'SukhumvitSet-Text', 'Sukhumvit Set';font-size:1041.67px;fill:rgb(164,52,58);">P</text>
                <text x="3524.01px" y="7340.1px" style="font-family:'SukhumvitSet-Text', 'Sukhumvit Set';font-size:1041.67px;fill:rgb(164,52,58);">A</text>
            </g>
            <g transform="matrix(1.02065,0,0,1.02065,-6680.29,3264.33)">
                <text x="8529.97px" y="8307.26px" style="font-family:'SukhumvitSet-Text', 'Sukhumvit Set';font-size:183.333px;fill:rgb(76,88,105);">D<tspan x="8647.12px 8688.18px 8787px 8877.38px 8945.03px 9007.18px 9048.25px 9192.53px 9282.55px 9383.38px 9443.7px 9540.5px 9585.97px 9686.07px 9727.13px 9772.6px 9866.65px 9907.72px 9948.78px 10045.6px 10123.1px 10219.9px 10316.2px 10406.6px 10448px 10493.5px 10588.4px 10685.2px 10767.2px 10808.2px 10905px 10946.1px 11042.9px 11142.6px 11183.7px 11274.1px " y="8307.26px 8307.26px 8307.26px 8307.26px 8307.26px 8307.26px 8307.26px 8307.26px 8307.26px 8307.26px 8307.26px 8307.26px 8307.26px 8307.26px 8307.26px 8307.26px 8307.26px 8307.26px 8307.26px 8307.26px 8307.26px 8307.26px 8307.26px 8307.26px 8307.26px 8307.26px 8307.26px 8307.26px 8307.26px 8307.26px 8307.26px 8307.26px 8307.26px 8307.26px 8307.26px 8307.26px ">ipartimento di Filosoﬁa, Sociologia,</tspan></text>
                <text x="8529.97px" y="8473.93px" style="font-family:'SukhumvitSet-Text', 'Sukhumvit Set';font-size:183.333px;fill:rgb(76,88,105);">P<tspan x="8627.13px 8717.15px 8817.25px 8907.63px 9007.37px 9104.17px 9203.9px 9244.97px 9335.35px 9380.82px 9470.83px 9516.3px 9615.3px 9692.85px 9733.92px 9810.92px 9907.72px 9948.78px 10045.6px 10145.3px 10186.4px 10276.8px 10322.2px 10434.4px 10534.3px 10634.3px 10675.3px 10716.4px 10797.2px 10887.6px 10949.8px " y="8473.93px 8473.93px 8473.93px 8473.93px 8473.93px 8473.93px 8473.93px 8473.93px 8473.93px 8473.93px 8473.93px 8473.93px 8473.93px 8473.93px 8473.93px 8473.93px 8473.93px 8473.93px 8473.93px 8473.93px 8473.93px 8473.93px 8473.93px 8473.93px 8473.93px 8473.93px 8473.93px 8473.93px 8473.93px 8473.93px 8473.93px ">edagogia e Psicologia Applicata</tspan></text>
            </g>
            <g transform="matrix(0.0847144,-0.969464,0.969464,0.0847144,-698.383,13365.4)">
                <path d="M2192.61,397.961C2183.1,381.451 2165.5,371.264 2146.45,371.231C2127.39,371.198 2109.76,381.323 2100.19,397.8C1991.75,584.447 1555.19,1335.88 1449.23,1518.26C1439.91,1534.29 1439.88,1554.09 1449.14,1570.15C1458.4,1586.22 1475.55,1596.11 1494.1,1596.09C1494.1,1596.09 2798.56,1594.2 2798.56,1594.2C2815.79,1594.17 2831.7,1584.97 2840.31,1570.04C2848.92,1555.12 2848.93,1536.74 2840.32,1521.81L2192.61,397.961Z" style="fill:none;stroke:rgb(164,52,58);stroke-width:21.41px;"/>
            </g>
            <g transform="matrix(0.799143,0.555345,-0.555345,0.799143,77.9575,9324.06)">
                <path d="M2192.61,397.961C2183.1,381.451 2165.5,371.264 2146.45,371.231C2127.39,371.198 2109.76,381.323 2100.19,397.8C1991.75,584.447 1555.19,1335.88 1449.23,1518.26C1439.91,1534.29 1439.88,1554.09 1449.14,1570.15C1458.4,1586.22 1475.55,1596.11 1494.1,1596.09C1494.1,1596.09 2798.56,1594.2 2798.56,1594.2C2815.79,1594.17 2831.7,1584.97 2840.31,1570.04C2848.92,1555.12 2848.93,1536.74 2840.32,1521.81L2192.61,397.961Z" style="fill:none;stroke:rgb(186,132,139);stroke-width:25.69px;"/>
            </g>
            <g transform="matrix(0.798848,0.55577,-0.55577,0.798848,316.746,8749.98)">
                <path d="M2192.61,397.961C2183.1,381.451 2165.5,371.264 2146.45,371.231C2127.39,371.198 2109.76,381.323 2100.19,397.8C1991.75,584.447 1555.19,1335.88 1449.23,1518.26C1439.91,1534.29 1439.88,1554.09 1449.14,1570.15C1458.4,1586.22 1475.55,1596.11 1494.1,1596.09C1494.1,1596.09 2798.56,1594.2 2798.56,1594.2C2815.79,1594.17 2831.7,1584.97 2840.31,1570.04C2848.92,1555.12 2848.93,1536.74 2840.32,1521.81L2192.61,397.961Z" style="fill:none;stroke:rgb(119,0,16);stroke-width:27.83px;"/>
            </g>
            <g transform="matrix(0.798229,0.556659,-0.556659,0.798229,-121.188,8787.05)">
                <path d="M2192.61,397.961C2183.1,381.451 2165.5,371.264 2146.45,371.231C2127.39,371.198 2109.76,381.323 2100.19,397.8C1991.75,584.447 1555.19,1335.88 1449.23,1518.26C1439.91,1534.29 1439.88,1554.09 1449.14,1570.15C1458.4,1586.22 1475.55,1596.11 1494.1,1596.09C1494.1,1596.09 2798.56,1594.2 2798.56,1594.2C2815.79,1594.17 2831.7,1584.97 2840.31,1570.04C2848.92,1555.12 2848.93,1536.74 2840.32,1521.81L2192.61,397.961Z" style="fill:none;stroke:rgb(200,182,184);stroke-width:32.11px;"/>
            </g>
        </g>
    </g>
</svg>
