<?xml version="1.0" encoding="UTF-8" standalone="no"?>
<svg
   width="5079.6899"
   height="1930.4819"
   viewBox="0 0 5079.6899 1930.4819"
   version="1.1"
   xml:space="preserve"
   style="clip-rule:evenodd;fill-rule:evenodd;stroke-linejoin:round;stroke-miterlimit:2"
   id="svg88"
   sodipodi:docname="LOGO FISSPA tondo monocr_0_Margine.svg"
   inkscape:version="1.1.2 (b8e25be833, 2022-02-05)"
   xmlns:inkscape="http://www.inkscape.org/namespaces/inkscape"
   xmlns:sodipodi="http://sodipodi.sourceforge.net/DTD/sodipodi-0.dtd"
   xmlns="http://www.w3.org/2000/svg"
   xmlns:svg="http://www.w3.org/2000/svg"><defs
   id="defs92" /><sodipodi:namedview
   id="namedview90"
   pagecolor="#ffffff"
   bordercolor="#666666"
   borderopacity="1.0"
   inkscape:pageshadow="2"
   inkscape:pageopacity="0.0"
   inkscape:pagecheckerboard="0"
   showgrid="false"
   inkscape:zoom="0.23262161"
   inkscape:cx="2347.1594"
   inkscape:cy="1102.6491"
   inkscape:window-width="1920"
   inkscape:window-height="1001"
   inkscape:window-x="-9"
   inkscape:window-y="-9"
   inkscape:window-maximized="1"
   inkscape:current-layer="svg88" />
    <g
   transform="matrix(0.08471428,-0.969464,0.96946429,0.0847144,-541.52438,3135.3412)"
   id="g11">
                        <path
   d="m 2192.61,397.961 c -9.51,-16.51 -27.11,-26.697 -46.16,-26.73 -19.06,-0.033 -36.69,10.092 -46.26,26.569 l -650.96,1120.46 c -9.32,16.03 -9.35,35.83 -0.09,51.89 9.26,16.07 26.41,25.96 44.96,25.94 213.91,-0.31 1104.71,-1.6 1304.46,-1.89 17.23,-0.03 33.14,-9.23 41.75,-24.16 8.61,-14.92 8.62,-33.3 0.01,-48.23 z"
   style="fill:#960b1e;fill-opacity:0.8"
   id="path9" />
                    </g><g
   transform="matrix(0.79914223,0.555345,-0.55534436,0.799143,234.82241,-906.03877)"
   id="g15">
                        <path
   d="m 2192.61,397.961 c -9.51,-16.51 -27.11,-26.697 -46.16,-26.73 -19.06,-0.033 -36.69,10.092 -46.26,26.569 -108.44,186.647 -545,938.08 -650.96,1120.46 -9.32,16.03 -9.35,35.83 -0.09,51.89 9.26,16.07 26.41,25.96 44.96,25.94 213.91,-0.31 1104.71,-1.6 1304.46,-1.89 17.23,-0.03 33.14,-9.23 41.75,-24.16 8.61,-14.92 8.62,-33.3 0.01,-48.23 z"
   style="fill:#c5aaab;fill-opacity:0.85"
   id="path13" />
                    </g><g
   transform="matrix(0.79884689,0.55577,-0.55576989,0.798848,473.61396,-1480.1288)"
   id="g19">
                        <path
   d="m 2192.61,397.961 c -9.51,-16.51 -27.11,-26.697 -46.16,-26.73 -19.06,-0.033 -36.69,10.092 -46.26,26.569 l -650.96,1120.46 c -9.32,16.03 -9.35,35.83 -0.09,51.89 9.26,16.07 26.41,25.96 44.96,25.94 213.91,-0.31 1104.71,-1.6 1304.46,-1.89 17.23,-0.03 33.14,-9.23 41.75,-24.16 8.61,-14.92 8.62,-33.3 0.01,-48.23 z"
   style="fill:#6d0006;fill-opacity:0.7"
   id="path17" />
                    </g><g
   transform="matrix(0.79822848,0.556659,-0.55665832,0.798229,35.678775,-1443.0588)"
   id="g23">
                        <path
   d="m 2192.61,397.961 c -9.51,-16.51 -27.11,-26.697 -46.16,-26.73 -19.06,-0.033 -36.69,10.092 -46.26,26.569 -108.44,186.647 -545,938.08 -650.96,1120.46 -9.32,16.03 -9.35,35.83 -0.09,51.89 9.26,16.07 26.41,25.96 44.96,25.94 213.91,-0.31 1104.71,-1.6 1304.46,-1.89 17.23,-0.03 33.14,-9.23 41.75,-24.16 8.61,-14.92 8.62,-33.3 0.01,-48.23 z"
   style="fill:#e3cfd0;fill-opacity:0.9"
   id="path21" />
                    </g><g
   transform="matrix(1.0206485,0,0,1.02065,2116.9629,1301.1464)"
   id="g27">
                                <g
   aria-label="F"
   id="text25"
   style="font-size:1041.67px;font-family:SukhumvitSet-Text, 'Sukhumvit Set';fill:#a4343a"><path
     d="M 85.416944,-702.08561 H 501.04329 v 72.9169 H 164.58387 v 240.62578 h 315.62602 v 72.91691 H 164.58387 V 0 H 85.416944 Z"
     id="path40018" /></g>
                            </g><g
   transform="matrix(1.0206485,0,0,1.02065,2598.5763,1301.1464)"
   id="g31">
                                <g
   aria-label="I"
   id="text29"
   style="font-size:1041.67px;font-family:SukhumvitSet-Text, 'Sukhumvit Set';fill:#a4343a"><path
     d="M 166.66721,0 H 87.500284 v -702.08561 h 79.166926 z"
     id="path40021" /></g>
                            </g><g
   transform="matrix(1.0206485,0,0,1.02065,2772.9439,1301.1464)"
   id="g35">
                                <g
   aria-label="S"
   id="text33"
   style="font-size:1041.67px;font-family:SukhumvitSet-Text, 'Sukhumvit Set';fill:#a4343a"><path
     d="m 258.33417,9.3750304 q -75.00024,0 -121.87539,-11.4583705 Q 90.625294,-13.541711 57.291852,-31.250101 l 20.833401,-64.583543 q 30.208427,14.583381 72.916907,25.000081 42.70847,10.4167 97.91698,10.4167 37.50012,0 68.75022,-7.29169 32.29177,-7.29169 55.20852,-21.875071 22.91674,-15.625046 35.41678,-39.583466 13.54171,-23.95841 13.54171,-57.29185 0,-33.33344 -13.54171,-55.20851 -13.54171,-21.87507 -37.50012,-37.50012 -22.91675,-15.62505 -53.12518,-26.04175 -30.20843,-11.45837 -63.54187,-21.87507 -33.33344,-10.4167 -67.70855,-25.00008 -34.37511,-14.58339 -63.54187,-36.45846 -29.166766,-22.91674 -47.916827,-56.25018 -17.708391,-33.33344 -17.708391,-82.29193 0,-39.58346 12.500041,-72.91691 13.541711,-34.37511 41.666797,-58.33352 28.1251,-25.00008 71.87524,-38.54179 43.75014,-14.58338 105.20867,-14.58338 52.0835,0 94.79198,10.4167 42.70847,9.37503 77.08358,27.08342 l -20.8334,64.58354 q -30.20843,-14.58338 -69.79189,-22.91674 -39.58347,-9.37503 -81.25027,-9.37503 -82.29193,0 -118.75038,32.29177 -36.45845,31.25011 -36.45845,81.25027 0,30.20843 12.50004,51.04183 12.50004,20.8334 33.33344,36.45845 21.87507,14.58338 50.00016,26.04175 29.16676,11.45837 61.45853,21.87507 37.50012,12.50004 73.95858,28.12509 37.50012,14.58339 66.66688,38.5418 30.20843,22.91674 47.91682,57.29185 18.75006,33.33344 18.75006,83.3336 0,50.00016 -17.70839,86.458616 -17.70839,36.458451 -50.00016,60.416862 -31.2501,23.958411 -76.04192,36.4584519 -43.75014,11.4583705 -95.83364,11.4583705 z"
     id="path40024" /></g>
                            </g><g
   transform="matrix(1.0206485,0,0,1.02065,3270.51,1301.1464)"
   id="g39">
                                <g
   aria-label="P"
   id="text37"
   style="font-size:1041.67px;font-family:SukhumvitSet-Text, 'Sukhumvit Set';fill:#a4343a"><path
     d="m 541.66842,-485.41824 q 0,47.91682 -16.66672,88.54195 -16.66672,39.58346 -47.91682,69.7919 -30.20843,29.16676 -73.95857,45.83348 -43.75014,16.66672 -97.91699,16.66672 H 164.58387 V 0 H 85.416944 V -702.08561 H 311.45934 q 54.16685,0 96.87532,16.66672 43.75014,16.66672 72.9169,45.83348 29.16676,29.16676 44.79181,68.75023 15.62505,39.58346 15.62505,85.41694 z m -79.16692,0 q 0,-66.66688 -38.54179,-105.20867 -38.54179,-38.5418 -112.50037,-38.5418 H 164.58387 v 291.66762 h 140.62545 q 73.95858,0 115.62538,-39.58347 41.6668,-39.58346 41.6668,-108.33368 z"
     id="path40027" /></g>
                            </g><g
   transform="matrix(1.0206485,0,0,1.02065,3812.7295,1301.1464)"
   id="g43">
                                <g
   aria-label="P"
   id="text41"
   style="font-size:1041.67px;font-family:SukhumvitSet-Text, 'Sukhumvit Set';fill:#a4343a"><path
     d="m 541.66842,-485.41824 q 0,47.91682 -16.66672,88.54195 -16.66672,39.58346 -47.91682,69.7919 -30.20843,29.16676 -73.95857,45.83348 -43.75014,16.66672 -97.91699,16.66672 H 164.58387 V 0 H 85.416944 V -702.08561 H 311.45934 q 54.16685,0 96.87532,16.66672 43.75014,16.66672 72.9169,45.83348 29.16676,29.16676 44.79181,68.75023 15.62505,39.58346 15.62505,85.41694 z m -79.16692,0 q 0,-66.66688 -38.54179,-105.20867 -38.54179,-38.5418 -112.50037,-38.5418 H 164.58387 v 291.66762 h 140.62545 q 73.95858,0 115.62538,-39.58347 41.6668,-39.58346 41.6668,-108.33368 z"
     id="path40030" /></g>
                            </g><g
   transform="matrix(1.0206485,0,0,1.02065,4243.3105,1301.1464)"
   id="g47">
                                <g
   aria-label="A"
   id="text45"
   style="font-size:1041.67px;font-family:SukhumvitSet-Text, 'Sukhumvit Set';fill:#a4343a"><path
     d="M 472.9182,-192.70896 H 173.9589 L 104.167,0 H 22.916741 L 284.37592,-702.08561 h 79.16693 L 625.00203,0 h -81.25027 z m -271.87588,-70.83356 h 245.83413 l -77.08358,-208.33401 q -11.45837,-35.41678 -22.91675,-69.79189 -10.4167,-35.41678 -21.87507,-70.83357 h -2.08334 q -11.45837,35.41679 -22.91674,70.83357 -10.4167,34.37511 -21.87507,69.79189 z"
     id="path40033" /></g>
                            </g><g
   transform="matrix(1.0206485,0,0,1.02065,2175.9846,1516.4269)"
   id="g61">
                                    <g
   aria-label="Dipartimento di Filosoï¬a, Sociologia,"
   id="text59"
   style="font-size:183.333px;font-family:SukhumvitSet-Text, 'Sukhumvit Set';white-space:pre;inline-size:3077.38;fill:#4c5869"><path
     d="m 110.54979,-61.966551 q 0,30.433276 -15.399967,46.199914 Q 79.749852,0 49.499908,0 H 15.033305 v -123.56644 h 34.466603 q 30.249944,0 45.649915,15.58331 15.399967,15.583302 15.399967,46.016579 z m -13.933303,0 q 0,-13.016643 -3.116661,-22.183293 -3.116661,-9.349982 -9.166649,-15.216638 -5.866656,-5.866658 -14.66664,-8.616648 -8.799983,-2.75 -20.166629,-2.75 H 28.966613 v 97.899821 h 20.533295 q 11.366646,0 20.166629,-2.749995 8.799984,-2.749995 14.66664,-8.616651 6.049988,-6.049989 9.166649,-15.399971 3.116661,-9.349983 3.116661,-22.366625 z"
     id="path40036" /><path
     d="m 147.21643,0 h -13.56664 v -88.549835 h 13.56664 z m -16.13331,-116.04978 q 0,-3.85 2.38333,-6.59999 2.38333,-2.75 6.96666,-2.75 4.76665,0 6.96665,2.75 2.38333,2.74999 2.38333,6.59999 0,3.84999 -2.38333,6.59998 -2.2,2.56667 -6.96665,2.56667 -4.58333,0 -6.96666,-2.56667 -2.38333,-2.74999 -2.38333,-6.59998 z"
     id="path40038" /><path
     d="m 189.38288,-42.166588 q 0,6.78332 2.01667,12.649976 2.19999,5.683323 5.86665,10.083315 3.66666,4.216659 8.61665,6.599988 4.94999,2.383328 10.63332,2.383328 4.94999,0 9.53331,-1.83333 4.58333,-1.833329 8.06665,-5.866655 3.48333,-4.216659 5.49999,-10.816647 2.2,-6.783321 2.2,-16.499969 0,-16.499969 -6.59999,-24.383288 -6.59999,-8.066652 -17.04997,-8.066652 -8.43331,0 -16.1333,4.583325 -7.51665,4.399992 -12.64998,11.366646 z m -2.38333,-46.383247 2.38333,14.299973 q 1.83333,-2.566662 4.76666,-5.316657 3.11666,-2.933328 6.96665,-5.133324 4.03333,-2.383328 8.98332,-3.849992 4.94999,-1.649997 10.44998,-1.649997 8.61665,0 15.03331,3.66666 6.59999,3.483326 10.81664,9.716648 4.4,6.049989 6.59999,14.299974 2.2,8.066651 2.2,17.049968 0,11.733311 -2.75,20.533295 -2.56666,8.799984 -7.51665,14.849972 -4.76666,5.8666562 -11.54998,8.7999841 -6.78332,2.9333278 -14.84997,2.9333278 -10.08332,0 -17.7833,-4.9499908 -7.69999,-5.1333238 -11.36665,-12.2833101 V 35.016602 H 175.81624 V -88.549835 Z"
     id="path40040" /><path
     d="m 329.26602,-44.183251 h -19.24996 q -12.64998,0 -19.06663,5.133324 -6.41666,4.94999 -6.41666,14.299973 0,7.699986 4.58333,11.733312 4.76666,4.0333254 11.73331,4.0333254 6.41665,0 11.54998,-2.3833294 5.31666,-2.383328 8.98332,-6.233321 3.84999,-4.033326 5.86665,-8.799984 2.01666,-4.949991 2.01666,-9.899982 z m 0,-14.116641 q 0,-11.183312 -5.68332,-15.94997 -5.68332,-4.949991 -15.39997,-4.949991 -8.24998,0 -15.21664,2.016663 -6.78332,1.83333 -12.46664,4.583325 l -3.11666,-9.716649 q 4.94999,-2.933328 13.01664,-5.316656 8.24998,-2.566662 18.14997,-2.566662 17.2333,0 25.48328,8.61665 8.24999,8.616651 8.24999,23.466623 V 0 h -10.26665 l -2.75,-15.583304 q -2.01666,3.483326 -4.76665,6.5999874 -2.56667,3.1166608 -6.23333,5.4999897 -3.48332,2.3833289 -8.24998,3.66665989 -4.76666,1.46666391 -11.36665,1.46666391 -5.68332,0 -10.63331,-1.6499969 -4.94999,-1.8333299 -8.79998,-5.1333238 -3.66666,-3.2999939 -5.86666,-8.2499842 -2.01666,-4.949991 -2.01666,-11.366646 0,-14.849972 10.26665,-22.183292 10.26664,-7.516653 28.59994,-7.516653 h 19.06663 z"
     id="path40042" /><path
     d="m 383.34928,-72.783198 q 1.83333,-3.116661 4.21666,-6.233322 2.56666,-3.116661 5.68333,-5.49999 3.11666,-2.566661 6.78332,-4.033325 3.84999,-1.649997 8.61665,-1.649997 5.49999,0 8.43331,1.283331 2.93333,1.283331 3.48333,1.649997 l -3.84999,13.383308 q -3.84999,-3.299994 -10.26665,-3.299994 -7.51665,0 -13.56664,4.216659 -5.86666,4.216659 -9.53332,11.916644 V 0 h -13.56664 v -88.549835 h 10.81665 z"
     id="path40044" /><path
     d="m 455.9491,-24.199955 q 0,7.33332 2.19999,11.183313 2.2,3.6666594 9.16665,3.6666594 4.21666,0 7.69999,-1.0999984 3.66666,-1.099998 6.41665,-2.566661 l 3.11667,9.7166481 q -3.66666,2.38332894 -8.06666,3.66665989 -4.39999,1.28333091 -11.18331,1.28333091 -11.54998,0 -17.04997,-6.0499887 -5.49999,-6.0499892 -5.49999,-19.6166302 v -53.533234 h -14.11664 v -10.999979 h 14.11664 l 3.48333,-25.299955 h 9.71665 v 25.299955 h 27.31661 v 10.999979 H 455.9491 Z"
     id="path40046" /><path
     d="m 517.54917,0 h -13.56664 v -88.549835 h 13.56664 z m -16.13331,-116.04978 q 0,-3.85 2.38333,-6.59999 2.38333,-2.75 6.96666,-2.75 4.76666,0 6.96665,2.75 2.38333,2.74999 2.38333,6.59999 0,3.84999 -2.38333,6.59998 -2.19999,2.56667 -6.96665,2.56667 -4.58333,0 -6.96666,-2.56667 -2.38333,-2.74999 -2.38333,-6.59998 z"
     id="path40048" /><path
     d="m 559.71565,0 h -13.56664 v -88.549835 h 11.18331 l 2.38333,14.299973 q 1.64999,-2.749995 4.21666,-5.49999 2.74999,-2.749995 6.23332,-5.133324 3.48332,-2.383328 7.88332,-3.849992 4.39999,-1.466664 9.71664,-1.466664 9.16665,0 14.66664,4.766657 5.68333,4.766658 7.88332,13.016643 4.39999,-7.149987 12.09998,-12.466644 7.69999,-5.316656 17.2333,-5.316656 13.01664,0 19.06663,8.799983 6.04999,8.799984 6.04999,23.099957 V 0 h -13.38331 v -58.299892 q 0,-8.983316 -3.29999,-14.483306 -3.11666,-5.49999 -11.18331,-5.49999 -4.03333,0 -7.69999,1.466664 -3.48333,1.466664 -6.59999,3.849993 -3.11666,2.383329 -5.86665,5.683323 -2.56666,3.116661 -4.39999,6.599987 V 0 h -13.38331 v -58.299892 q 0,-8.983316 -3.3,-14.483306 -3.29999,-5.49999 -10.99998,-5.49999 -8.24998,0 -14.84997,4.949991 -6.41665,4.766658 -10.08331,11.366646 z"
     id="path40050" /><path
     d="m 699.78217,-38.133262 q 1.1,13.749974 8.61666,21.266627 7.69998,7.5166524 21.99995,7.5166524 6.04999,0 12.28331,-1.2833314 6.23333,-1.283331 11.18332,-3.849992 l 3.29999,10.0833142 Q 751.48208,-1.4666639 744.51542,0 q -6.78332,1.6499969 -15.21663,1.6499969 -10.81665,0 -18.8833,-3.2999938 -7.88332,-3.2999939 -13.19998,-9.1666501 -5.13332,-6.049988 -7.88332,-14.483306 -2.56666,-8.616651 -2.56666,-19.066631 0,-9.716649 2.38333,-18.149966 2.38333,-8.433318 7.14999,-14.483307 4.94999,-6.233322 12.46664,-9.716648 7.69999,-3.483327 18.14997,-3.483327 17.2333,0 26.03328,9.899981 8.79999,9.716649 8.79999,26.766617 0,4.399992 -0.55,8.249985 -0.55,3.849993 -1.46667,7.149987 z m 27.13329,-41.61659 q -6.96666,0 -11.91665,2.383329 -4.94999,2.383329 -8.24998,6.599988 -3.3,4.216659 -4.94999,10.083314 -1.65,5.683323 -2.01667,12.466644 h 49.13325 q 0.18333,-0.366666 0.18333,-2.566662 0,-2.199996 0,-2.749995 0,-12.649976 -5.13332,-19.433297 -5.13333,-6.783321 -17.04997,-6.783321 z"
     id="path40052" /><path
     d="m 797.68189,0 h -13.56664 v -88.549835 h 10.99998 l 2.56666,14.299973 q 2.01667,-2.566662 4.95,-5.316657 3.11666,-2.933328 7.14998,-5.133324 4.03333,-2.383328 8.79999,-3.849992 4.94999,-1.649997 10.63331,-1.649997 14.11664,0 21.99996,9.166649 8.06665,9.16665 8.06665,25.483286 V 0 h -13.38331 v -55.549897 q 0,-10.44998 -5.13332,-16.499969 -4.94999,-6.049989 -13.74998,-6.049989 -9.34998,0 -17.04996,4.766658 -7.51666,4.583325 -12.28332,11.366646 z"
     id="path40054" /><path
     d="m 903.46494,-24.199955 q 0,7.33332 2.19999,11.183313 2.2,3.6666594 9.16665,3.6666594 4.21666,0 7.69999,-1.0999984 3.66666,-1.099998 6.41665,-2.566661 l 3.11666,9.7166481 q -3.66666,2.38332894 -8.06665,3.66665989 -4.39999,1.28333091 -11.18331,1.28333091 -11.54998,0 -17.04997,-6.0499887 -5.49999,-6.0499892 -5.49999,-19.6166302 v -53.533234 h -14.11664 v -10.999979 h 14.11664 l 3.48333,-25.299955 h 9.71665 v 25.299955 h 27.31661 v 10.999979 h -27.31661 z"
     id="path40056" /><path
     d="m 958.28169,-44.366584 q 0,7.516652 1.64999,14.11664 1.65,6.416655 4.94999,11.183313 3.48333,4.583325 8.61665,7.333319 5.31666,2.5666624 12.64998,2.5666624 7.33332,0 12.46664,-2.5666624 5.31666,-2.749994 8.61666,-7.333319 3.4833,-4.766658 5.1333,-11.183313 1.65,-6.599988 1.65,-14.11664 0,-7.516653 -1.65,-13.749975 -1.65,-6.416654 -5.1333,-10.999979 -3.3,-4.766658 -8.61666,-7.33332 -5.13332,-2.749995 -12.46664,-2.749995 -7.33332,0 -12.64998,2.749995 -5.13332,2.566662 -8.61665,7.33332 -3.29999,4.583325 -4.94999,10.999979 -1.64999,6.233322 -1.64999,13.749975 z m -13.38331,0 q 0,-9.716649 2.38333,-17.966633 2.56666,-8.433318 7.51665,-14.66664 5.13332,-6.233322 12.83331,-9.716648 7.88332,-3.483327 18.51663,-3.483327 10.63331,0 18.3333,3.483327 7.7,3.483326 12.8333,9.716648 5.1333,6.233322 7.5167,14.66664 2.5666,8.249984 2.5666,17.966633 0,9.716648 -2.5666,18.149966 -2.3834,8.433318 -7.5167,14.666639 -5.1333,6.2333222 -12.8333,9.7166491 -7.69999,3.4833268 -18.3333,3.4833268 -10.63331,0 -18.51663,-3.4833268 -7.69999,-3.4833269 -12.83331,-9.7166491 -4.94999,-6.233321 -7.51665,-14.666639 -2.38333,-8.433318 -2.38333,-18.149966 z"
     id="path40058" /><path
     d="m 1156.8312,-62.333217 q -4.7667,-7.33332 -11.3667,-11.366646 -6.6,-4.216659 -14.1166,-4.216659 -11.55,0 -19.25,8.249985 -7.7,8.249984 -7.7,25.299953 0,9.349982 2.0167,15.766637 2.2,6.416655 5.6833,10.449981 3.6667,4.033326 8.25,5.866655 4.5833,1.83333 9.5333,1.83333 5.6834,0 10.45,-2.383328 4.95,-2.383329 8.6167,-6.599988 3.6666,-4.399992 5.6833,-10.083315 2.2,-5.866656 2.2,-12.649976 z M 1170.3978,0 h -10.8166 l -2.75,-15.583304 q -3.6667,7.1499863 -11.3667,12.2833101 -7.5166,4.9499908 -17.4166,4.9499908 -8.0667,0 -14.85,-2.9333278 -6.7833,-2.9333279 -11.7333,-8.6166507 -4.7666,-5.8666554 -7.5166,-14.2999734 -2.75,-8.616651 -2.75,-19.983296 0,-9.899982 2.5666,-18.149966 2.5667,-8.433318 7.5167,-14.66664 4.95,-6.233322 11.9166,-9.716648 7.15,-3.483327 15.95,-3.483327 5.1333,0 9.5333,1.466664 4.4,1.283331 7.8833,3.666659 3.4834,2.199996 6.05,4.949991 2.5667,2.749995 4.2167,5.49999 v -48.949912 h 13.5666 z"
     id="path40060" /><path
     d="m 1212.931,0 h -13.5666 v -88.549835 h 13.5666 z m -16.1333,-116.04978 q 0,-3.85 2.3834,-6.59999 2.3833,-2.75 6.9666,-2.75 4.7667,0 6.9667,2.75 2.3833,2.74999 2.3833,6.59999 0,3.84999 -2.3833,6.59998 -2.2,2.56667 -6.9667,2.56667 -4.5833,0 -6.9666,-2.56667 -2.3834,-2.74999 -2.3834,-6.59998 z"
     id="path40062" /><path
     d="m 1289.9306,-123.56644 h 73.1499 v 12.83331 h -59.2165 v 42.349924 h 55.5498 v 12.833309 H 1303.864 V 0 h -13.9334 z"
     id="path40064" /><path
     d="m 1399.0139,0 h -13.5666 v -88.549835 h 13.5666 z m -16.1333,-116.04978 q 0,-3.85 2.3833,-6.59999 2.3834,-2.75 6.9667,-2.75 4.7667,0 6.9667,2.75 2.3833,2.74999 2.3833,6.59999 0,3.84999 -2.3833,6.59998 -2.2,2.56667 -6.9667,2.56667 -4.5833,0 -6.9667,-2.56667 -2.3833,-2.74999 -2.3833,-6.59998 z"
     id="path40066" /><path
     d="m 1441.9137,0 h -13.5666 v -123.56644 h 13.5666 z"
     id="path40068" /><path
     d="m 1478.0302,-44.366584 q 0,7.516652 1.65,14.11664 1.65,6.416655 4.9499,11.183313 3.4834,4.583325 8.6167,7.333319 5.3167,2.5666624 12.65,2.5666624 7.3333,0 12.4666,-2.5666624 5.3167,-2.749994 8.6167,-7.333319 3.4833,-4.766658 5.1333,-11.183313 1.65,-6.599988 1.65,-14.11664 0,-7.516653 -1.65,-13.749975 -1.65,-6.416654 -5.1333,-10.999979 -3.3,-4.766658 -8.6167,-7.33332 -5.1333,-2.749995 -12.4666,-2.749995 -7.3333,0 -12.65,2.749995 -5.1333,2.566662 -8.6167,7.33332 -3.2999,4.583325 -4.9499,10.999979 -1.65,6.233322 -1.65,13.749975 z m -13.3833,0 q 0,-9.716649 2.3833,-17.966633 2.5666,-8.433318 7.5166,-14.66664 5.1334,-6.233322 12.8333,-9.716648 7.8834,-3.483327 18.5167,-3.483327 10.6333,0 18.3333,3.483327 7.7,3.483326 12.8333,9.716648 5.1333,6.233322 7.5166,14.66664 2.5667,8.249984 2.5667,17.966633 0,9.716648 -2.5667,18.149966 -2.3833,8.433318 -7.5166,14.666639 -5.1333,6.2333222 -12.8333,9.7166491 -7.7,3.4833268 -18.3333,3.4833268 -10.6333,0 -18.5167,-3.4833268 -7.6999,-3.4833269 -12.8333,-9.7166491 -4.95,-6.233321 -7.5166,-14.666639 -2.3833,-8.433318 -2.3833,-18.149966 z"
     id="path40070" /><path
     d="m 1591.5133,-8.9833166 q 11.1833,0 15.95,-4.0333254 4.7666,-4.216659 4.7666,-10.083315 0,-7.33332 -6.2333,-10.99998 -6.2333,-3.849992 -15.2166,-6.416654 -5.8667,-1.649997 -10.8167,-3.849993 -4.7666,-2.199996 -8.4333,-5.316657 -3.4833,-3.116661 -5.5,-7.33332 -1.8333,-4.216659 -1.8333,-10.083314 0,-11.183313 8.4333,-17.049969 8.6167,-6.049988 22.9166,-6.049988 7.7,0 14.6667,1.466664 6.9666,1.466664 12.2833,4.033325 l -3.1167,10.449981 q -4.95,-2.383329 -10.6333,-3.66666 -5.6833,-1.466664 -12.1,-1.466664 -9.8999,0 -14.6666,3.299994 -4.7667,3.299994 -4.7667,8.799984 0,6.416654 4.95,9.716648 4.95,3.299994 13.2,5.866656 14.85,4.583325 22.3666,10.99998 7.7,6.233321 7.7,17.7833 0,11.183312 -8.0666,17.9666332 -8.0667,6.5999877 -25.3,6.5999877 -8.4333,0 -15.7666,-1.46666391 -7.3333,-1.46666389 -12.2833,-4.21665879 L 1567.13,-14.11664 q 4.7667,2.199995 11.1833,3.666659 6.4167,1.4666644 13.2,1.4666644 z"
     id="path40072" /><path
     d="m 1656.0466,-44.366584 q 0,7.516652 1.65,14.11664 1.65,6.416655 4.95,11.183313 3.4834,4.583325 8.6167,7.333319 5.3166,2.5666624 12.65,2.5666624 7.3333,0 12.4666,-2.5666624 5.3167,-2.749994 8.6166,-7.333319 3.4834,-4.766658 5.1334,-11.183313 1.65,-6.599988 1.65,-14.11664 0,-7.516653 -1.65,-13.749975 -1.65,-6.416654 -5.1334,-10.999979 -3.2999,-4.766658 -8.6166,-7.33332 -5.1333,-2.749995 -12.4666,-2.749995 -7.3334,0 -12.65,2.749995 -5.1333,2.566662 -8.6167,7.33332 -3.3,4.583325 -4.95,10.999979 -1.65,6.233322 -1.65,13.749975 z m -13.3833,0 q 0,-9.716649 2.3834,-17.966633 2.5666,-8.433318 7.5166,-14.66664 5.1333,-6.233322 12.8333,-9.716648 7.8833,-3.483327 18.5167,-3.483327 10.6333,0 18.3333,3.483327 7.6999,3.483326 12.8333,9.716648 5.1333,6.233322 7.5166,14.66664 2.5667,8.249984 2.5667,17.966633 0,9.716648 -2.5667,18.149966 -2.3833,8.433318 -7.5166,14.666639 -5.1334,6.2333222 -12.8333,9.7166491 -7.7,3.4833268 -18.3333,3.4833268 -10.6334,0 -18.5167,-3.4833268 -7.7,-3.4833269 -12.8333,-9.7166491 -4.95,-6.233321 -7.5166,-14.666639 -2.3834,-8.433318 -2.3834,-18.149966 z"
     id="path40074" /><path
     d="m 1816.6464,0 h -13.5667 v -77.549856 h -39.2332 V 0 h -13.2 v -77.549856 h -14.1166 v -10.999979 h 14.1166 v -2.566662 q 0,-7.516653 1.8333,-13.749973 2.0167,-6.41666 6.05,-10.81665 4.0333,-4.58332 10.0833,-6.96665 6.2333,-2.56666 14.6667,-2.56666 6.9666,0 12.6499,1.64999 5.8667,1.46667 9.7167,3.48333 l -3.1167,9.89998 q -3.6666,-2.01666 -8.6166,-2.93333 -4.7667,-1.09999 -9.9,-1.09999 -11.3666,0 -15.7666,6.41665 -4.4,6.41666 -4.4,16.866636 v 2.383329 h 52.7999 z"
     id="path40076" /><path
     d="m 1896.9462,-44.183251 h -19.25 q -12.6499,0 -19.0666,5.133324 -6.4167,4.94999 -6.4167,14.299973 0,7.699986 4.5834,11.733312 4.7666,4.0333254 11.7333,4.0333254 6.4166,0 11.55,-2.3833294 5.3166,-2.383328 8.9833,-6.233321 3.85,-4.033326 5.8666,-8.799984 2.0167,-4.949991 2.0167,-9.899982 z m 0,-14.116641 q 0,-11.183312 -5.6833,-15.94997 -5.6833,-4.949991 -15.4,-4.949991 -8.25,0 -15.2166,2.016663 -6.7834,1.83333 -12.4667,4.583325 l -3.1166,-9.716649 q 4.95,-2.933328 13.0166,-5.316656 8.25,-2.566662 18.15,-2.566662 17.2333,0 25.4833,8.61665 8.2499,8.616651 8.2499,23.466623 V 0 h -10.2666 l -2.75,-15.583304 q -2.0167,3.483326 -4.7667,6.5999874 -2.5666,3.1166608 -6.2333,5.4999897 -3.4833,2.3833289 -8.25,3.66665989 -4.7666,1.46666391 -11.3666,1.46666391 -5.6833,0 -10.6333,-1.6499969 -4.95,-1.8333299 -8.8,-5.1333238 -3.6667,-3.2999939 -5.8667,-8.2499842 -2.0166,-4.949991 -2.0166,-11.366646 0,-14.849972 10.2666,-22.183292 10.2667,-7.516653 28.6,-7.516653 h 19.0666 z"
     id="path40078" /><path
     d="m 1955.4295,-17.7833 -13.0167,40.699924 h -8.4333 l 5.3167,-40.699924 z"
     id="path40080" /><path
     d="m 2059.5625,1.6499969 q -13.1999,0 -21.4499,-2.01666289 -8.0667,-2.01666291 -13.9333,-5.13332381 l 3.6666,-11.3666452 q 5.3167,2.566662 12.8333,4.399992 7.5167,1.833329 17.2333,1.833329 6.6,0 12.1,-1.283331 5.6833,-1.28333 9.7167,-3.849992 4.0333,-2.749995 6.2333,-6.966654 2.3833,-4.216659 2.3833,-10.083315 0,-5.866655 -2.3833,-9.716648 -2.3833,-3.849993 -6.6,-6.599988 -4.0333,-2.749995 -9.35,-4.583325 -5.3166,-2.016663 -11.1833,-3.849993 -5.8667,-1.83333 -11.9166,-4.399991 -6.05,-2.566662 -11.1834,-6.416655 -5.1333,-4.033326 -8.4333,-9.899982 -3.1166,-5.866656 -3.1166,-14.483306 0,-6.966654 2.2,-12.833306 2.3833,-6.04999 7.3333,-10.26665 4.95,-4.39999 12.65,-6.78332 7.6999,-2.56666 18.5166,-2.56666 9.1666,0 16.6833,1.83333 7.5166,1.64999 13.5666,4.76665 l -3.6666,11.36665 q -5.3167,-2.56666 -12.2833,-4.03333 -6.9667,-1.64999 -14.3,-1.64999 -14.4833,0 -20.9,5.68332 -6.4166,5.49999 -6.4166,14.299973 0,5.316657 2.2,8.983316 2.2,3.66666 5.8666,6.416655 3.85,2.566662 8.8,4.583325 5.1333,2.016663 10.8167,3.849993 6.5999,2.199996 13.0166,4.949991 6.6,2.566662 11.7333,6.78332 5.3167,4.033326 8.4333,10.083315 3.3,5.866656 3.3,14.666639 0,8.799984 -3.1166,15.216639 -3.1167,6.416654 -8.8,10.6333133 -5.5,4.2166588 -13.3833,6.41665471 -7.7,2.01666289 -16.8667,2.01666289 z"
     id="path40082" /><path
     d="m 2132.3457,-44.366584 q 0,7.516652 1.65,14.11664 1.65,6.416655 4.95,11.183313 3.4833,4.583325 8.6167,7.333319 5.3166,2.5666624 12.6499,2.5666624 7.3333,0 12.4667,-2.5666624 5.3166,-2.749994 8.6166,-7.333319 3.4833,-4.766658 5.1333,-11.183313 1.65,-6.599988 1.65,-14.11664 0,-7.516653 -1.65,-13.749975 -1.65,-6.416654 -5.1333,-10.999979 -3.3,-4.766658 -8.6166,-7.33332 -5.1334,-2.749995 -12.4667,-2.749995 -7.3333,0 -12.6499,2.749995 -5.1334,2.566662 -8.6167,7.33332 -3.3,4.583325 -4.95,10.999979 -1.65,6.233322 -1.65,13.749975 z m -13.3833,0 q 0,-9.716649 2.3833,-17.966633 2.5667,-8.433318 7.5167,-14.66664 5.1333,-6.233322 12.8333,-9.716648 7.8833,-3.483327 18.5166,-3.483327 10.6333,0 18.3333,3.483327 7.7,3.483326 12.8333,9.716648 5.1334,6.233322 7.5167,14.66664 2.5667,8.249984 2.5667,17.966633 0,9.716648 -2.5667,18.149966 -2.3833,8.433318 -7.5167,14.666639 -5.1333,6.2333222 -12.8333,9.7166491 -7.7,3.4833268 -18.3333,3.4833268 -10.6333,0 -18.5166,-3.4833268 -7.7,-3.4833269 -12.8333,-9.7166491 -4.95,-6.233321 -7.5167,-14.666639 -2.3833,-8.433318 -2.3833,-18.149966 z"
     id="path40084" /><path
     d="m 2260.312,-79.199853 q -7.5166,0 -13.1999,2.566662 -5.5,2.566662 -9.1667,7.33332 -3.4833,4.583325 -5.3166,10.999979 -1.65,6.416655 -1.65,13.933308 0,7.516652 1.65,13.933307 1.8333,6.416655 5.5,11.183313 3.6666,4.583325 9.3499,7.333319 5.6834,2.5666624 13.5667,2.5666624 5.6833,0 11.3666,-1.2833314 5.8667,-1.466664 11,-4.033325 l 3.1167,10.0833142 q -5.6834,2.9333279 -12.1,4.5833248 -6.2333,1.6499969 -14.4833,1.6499969 -10.8167,0 -18.7,-3.4833268 -7.8833,-3.4833269 -13.2,-9.7166491 -5.3166,-6.233321 -7.8833,-14.666639 -2.5666,-8.433318 -2.5666,-18.149966 0,-9.716649 2.5666,-18.149966 2.5667,-8.433318 7.8833,-14.483307 5.3167,-6.233322 13.3833,-9.716648 8.0667,-3.483327 18.8833,-3.483327 7.5167,0 13.75,1.649997 6.2333,1.466664 11.55,4.033325 l -3.1167,10.266648 q -4.7666,-2.199996 -10.2666,-3.483327 -5.5,-1.466664 -11.9167,-1.466664 z"
     id="path40086" /><path
     d="m 2321.5455,0 h -13.5666 v -88.549835 h 13.5666 z m -16.1333,-116.04978 q 0,-3.85 2.3834,-6.59999 2.3833,-2.75 6.9666,-2.75 4.7667,0 6.9667,2.75 2.3833,2.74999 2.3833,6.59999 0,3.84999 -2.3833,6.59998 -2.2,2.56667 -6.9667,2.56667 -4.5833,0 -6.9666,-2.56667 -2.3834,-2.74999 -2.3834,-6.59998 z"
     id="path40088" /><path
     d="m 2357.6619,-44.366584 q 0,7.516652 1.65,14.11664 1.65,6.416655 4.95,11.183313 3.4833,4.583325 8.6166,7.333319 5.3167,2.5666624 12.65,2.5666624 7.3333,0 12.4666,-2.5666624 5.3167,-2.749994 8.6167,-7.333319 3.4833,-4.766658 5.1333,-11.183313 1.65,-6.599988 1.65,-14.11664 0,-7.516653 -1.65,-13.749975 -1.65,-6.416654 -5.1333,-10.999979 -3.3,-4.766658 -8.6167,-7.33332 -5.1333,-2.749995 -12.4666,-2.749995 -7.3333,0 -12.65,2.749995 -5.1333,2.566662 -8.6166,7.33332 -3.3,4.583325 -4.95,10.999979 -1.65,6.233322 -1.65,13.749975 z m -13.3833,0 q 0,-9.716649 2.3833,-17.966633 2.5667,-8.433318 7.5166,-14.66664 5.1334,-6.233322 12.8334,-9.716648 7.8833,-3.483327 18.5166,-3.483327 10.6333,0 18.3333,3.483327 7.7,3.483326 12.8333,9.716648 5.1333,6.233322 7.5167,14.66664 2.5666,8.249984 2.5666,17.966633 0,9.716648 -2.5666,18.149966 -2.3834,8.433318 -7.5167,14.666639 -5.1333,6.2333222 -12.8333,9.7166491 -7.7,3.4833268 -18.3333,3.4833268 -10.6333,0 -18.5166,-3.4833268 -7.7,-3.4833269 -12.8334,-9.7166491 -4.9499,-6.233321 -7.5166,-14.666639 -2.3833,-8.433318 -2.3833,-18.149966 z"
     id="path40090" /><path
     d="m 2463.0785,0 h -13.5666 v -123.56644 h 13.5666 z"
     id="path40092" /><path
     d="m 2499.1948,-44.366584 q 0,7.516652 1.65,14.11664 1.65,6.416655 4.95,11.183313 3.4833,4.583325 8.6167,7.333319 5.3166,2.5666624 12.6499,2.5666624 7.3334,0 12.4667,-2.5666624 5.3166,-2.749994 8.6166,-7.333319 3.4834,-4.766658 5.1334,-11.183313 1.65,-6.599988 1.65,-14.11664 0,-7.516653 -1.65,-13.749975 -1.65,-6.416654 -5.1334,-10.999979 -3.3,-4.766658 -8.6166,-7.33332 -5.1333,-2.749995 -12.4667,-2.749995 -7.3333,0 -12.6499,2.749995 -5.1334,2.566662 -8.6167,7.33332 -3.3,4.583325 -4.95,10.999979 -1.65,6.233322 -1.65,13.749975 z m -13.3833,0 q 0,-9.716649 2.3834,-17.966633 2.5666,-8.433318 7.5166,-14.66664 5.1333,-6.233322 12.8333,-9.716648 7.8833,-3.483327 18.5166,-3.483327 10.6334,0 18.3333,3.483327 7.7,3.483326 12.8334,9.716648 5.1333,6.233322 7.5166,14.66664 2.5667,8.249984 2.5667,17.966633 0,9.716648 -2.5667,18.149966 -2.3833,8.433318 -7.5166,14.666639 -5.1334,6.2333222 -12.8334,9.7166491 -7.6999,3.4833268 -18.3333,3.4833268 -10.6333,0 -18.5166,-3.4833268 -7.7,-3.4833269 -12.8333,-9.7166491 -4.95,-6.233321 -7.5166,-14.666639 -2.3834,-8.433318 -2.3834,-18.149966 z"
     id="path40094" /><path
     d="m 2650.4447,-61.599885 q -4.2167,-6.966654 -11.1833,-11.549979 -6.7833,-4.766658 -14.3,-4.766658 -11.55,0 -19.2499,8.249985 -7.7,8.066652 -7.7,24.749954 0,8.983316 2.0166,15.399971 2.2,6.233322 5.6834,10.266648 3.6666,3.849993 8.2499,5.683323 4.5834,1.833329 9.5334,1.833329 6.0499,0 10.9999,-2.383328 4.95,-2.383329 8.4334,-6.599988 3.6666,-4.399992 5.4999,-10.083315 2.0167,-5.866656 2.0167,-12.649976 z m 0,44.73325 q -3.6667,7.1499864 -11.3666,12.2833102 -7.5167,4.94999079 -17.4167,4.94999079 -8.0666,0 -14.8499,-2.93332789 -6.7834,-2.9333279 -11.7334,-8.6166511 -4.7666,-5.683322 -7.5166,-14.11664 -2.75,-8.616651 -2.75,-19.61663 0,-9.533316 2.5667,-17.7833 2.5666,-8.249985 7.5166,-14.299974 4.95,-6.233322 11.9167,-9.716648 7.1499,-3.483327 15.9499,-3.483327 5.1333,0 9.5333,1.649997 4.4,1.466664 7.7,3.849992 3.4833,2.199996 6.05,5.133324 2.75,2.749995 4.4,5.316657 l 2.3833,-14.299973 h 11.1833 v 81.9498473 q 0,11.5499785 -2.9333,19.6166297 -2.9333,8.249985 -8.25,13.383309 -5.3166,5.316657 -12.8333,7.699986 -7.3333,2.566662 -16.3166,2.566662 -9.5333,0 -18.15,-2.566662 -8.6166,-2.383329 -13.75,-5.49999 l 3.3,-10.99998 q 5.3167,3.116661 12.2833,4.949991 6.9667,2.016663 14.85,2.016663 6.2333,0 11.3667,-1.466664 5.3166,-1.283331 8.9833,-4.949991 3.6666,-3.483327 5.6833,-9.5333153 2.2,-6.0499888 2.2,-15.3999714 z"
     id="path40096" /><path
     d="m 2706.1781,0 h -13.5666 v -88.549835 h 13.5666 z m -16.1333,-116.04978 q 0,-3.85 2.3833,-6.59999 2.3834,-2.75 6.9667,-2.75 4.7666,0 6.9666,2.75 2.3834,2.74999 2.3834,6.59999 0,3.84999 -2.3834,6.59998 -2.2,2.56667 -6.9666,2.56667 -4.5833,0 -6.9667,-2.56667 -2.3833,-2.74999 -2.3833,-6.59998 z"
     id="path40098" /><path
     d="m 2786.4777,-44.183251 h -19.25 q -12.6499,0 -19.0666,5.133324 -6.4167,4.94999 -6.4167,14.299973 0,7.699986 4.5834,11.733312 4.7666,4.0333254 11.7333,4.0333254 6.4166,0 11.55,-2.3833294 5.3166,-2.383328 8.9833,-6.233321 3.85,-4.033326 5.8666,-8.799984 2.0167,-4.949991 2.0167,-9.899982 z m 0,-14.116641 q 0,-11.183312 -5.6833,-15.94997 -5.6834,-4.949991 -15.4,-4.949991 -8.25,0 -15.2166,2.016663 -6.7834,1.83333 -12.4667,4.583325 l -3.1166,-9.716649 q 4.9499,-2.933328 13.0166,-5.316656 8.25,-2.566662 18.15,-2.566662 17.2333,0 25.4833,8.61665 8.2499,8.616651 8.2499,23.466623 V 0 h -10.2666 l -2.75,-15.583304 q -2.0167,3.483326 -4.7667,6.5999874 -2.5666,3.1166608 -6.2333,5.4999897 -3.4833,2.3833289 -8.25,3.66665989 -4.7666,1.46666391 -11.3666,1.46666391 -5.6833,0 -10.6333,-1.6499969 -4.95,-1.8333299 -8.8,-5.1333238 -3.6667,-3.2999939 -5.8667,-8.2499842 -2.0166,-4.949991 -2.0166,-11.366646 0,-14.849972 10.2666,-22.183292 10.2667,-7.516653 28.6,-7.516653 h 19.0666 z"
     id="path40100" /><path
     d="m 2844.961,-17.7833 -13.0167,40.699924 h -8.4333 l 5.3167,-40.699924 z"
     id="path40102" /></g>
                                </g><g
   aria-label="Pedagogia e Psicologia Applicata"
   transform="translate(-550.1796,-257.47097)"
   id="text73"
   style="font-size:187.119px;font-family:SukhumvitSet-Text, 'Sukhumvit Set';white-space:pre;inline-size:2962.68;fill:#4c5869;stroke-width:1.02065"><path
     d="m 2823.0656,1856.8108 q 0,8.6075 -2.994,15.9052 -2.9939,7.1105 -8.6074,12.5369 -5.4265,5.2394 -13.2855,8.2333 -7.859,2.9939 -17.5892,2.9939 h -25.261 v 47.5282 h -14.2211 v -126.1182 h 40.6049 q 9.7301,0 17.402,2.9939 7.859,2.9939 13.0984,8.2332 5.2393,5.2394 8.0461,12.3499 2.8068,7.1105 2.8068,15.3437 z m -14.2211,0 q 0,-11.9756 -6.9234,-18.899 -6.9234,-6.9234 -20.2088,-6.9234 h -26.3838 v 52.3933 h 25.261 q 13.2855,0 20.7702,-7.1105 7.4848,-7.1105 7.4848,-19.4604 z"
     id="path40105" /><path
     d="m 2848.7007,1905.0875 q 1.1227,14.034 8.7946,21.7059 7.859,7.6718 22.4542,7.6718 6.175,0 12.537,-1.3098 6.3621,-1.3098 11.4143,-3.9295 l 3.3681,10.2915 q -5.8007,2.9939 -12.9112,4.4909 -6.9234,1.6841 -15.5309,1.6841 -11.04,0 -19.2732,-3.3682 -8.0461,-3.3681 -13.4726,-9.3559 -5.2393,-6.1749 -8.0461,-14.7824 -2.6197,-8.7946 -2.6197,-19.4604 0,-9.9173 2.4326,-18.5248 2.4325,-8.6075 7.2976,-14.7824 5.0522,-6.362 12.7241,-9.9173 7.859,-3.5552 18.5248,-3.5552 17.5892,0 26.5709,10.1044 8.9817,9.9173 8.9817,27.3194 0,4.4908 -0.5614,8.4203 -0.5613,3.9295 -1.4969,7.2976 z m 27.6936,-42.476 q -7.1105,0 -12.1628,2.4326 -5.0522,2.4325 -8.4203,6.7363 -3.3681,4.3037 -5.0522,10.2915 -1.6841,5.8007 -2.0583,12.7241 h 50.1479 q 0.1871,-0.3742 0.1871,-2.6197 0,-2.2454 0,-2.8067 0,-12.9113 -5.2393,-19.8347 -5.2394,-6.9234 -17.4021,-6.9234 z"
     id="path40107" /><path
     d="m 2996.1503,1880.3878 q -4.8651,-7.4847 -11.6013,-11.6013 -6.7363,-4.3038 -14.4082,-4.3038 -11.7885,0 -19.6475,8.4204 -7.859,8.4203 -7.859,25.8224 0,9.5431 2.0583,16.0922 2.2454,6.5492 5.8007,10.6658 3.7424,4.1166 8.4204,5.9878 4.6779,1.8712 9.7301,1.8712 5.8007,0 10.6658,-2.4325 5.0522,-2.4326 8.7946,-6.7363 3.7424,-4.4909 5.8007,-10.2916 2.2454,-5.9878 2.2454,-12.9112 z m 13.8468,63.6205 h -11.04 l -2.8068,-15.9051 q -3.7423,7.2976 -11.6013,12.537 -7.6719,5.0522 -17.7763,5.0522 -8.2333,0 -15.1567,-2.9939 -6.9234,-2.9939 -11.9756,-8.7946 -4.8651,-5.9878 -7.6719,-14.5953 -2.8068,-8.7946 -2.8068,-20.396 0,-10.1044 2.6197,-18.5248 2.6197,-8.6074 7.6719,-14.9695 5.0522,-6.362 12.1627,-9.9173 7.2977,-3.5552 16.2794,-3.5552 5.2393,0 9.7302,1.4969 4.4908,1.3098 8.0461,3.7424 3.5552,2.2454 6.1749,5.0522 2.6197,2.8068 4.3037,5.6136 v -49.9608 h 13.8468 z"
     id="path40109" /><path
     d="m 3091.581,1898.9126 h -19.6475 q -12.9112,0 -19.4604,5.2394 -6.5492,5.0522 -6.5492,14.5952 0,7.859 4.678,11.9757 4.8651,4.1166 11.9756,4.1166 6.5492,0 11.7885,-2.4326 5.4265,-2.4325 9.1689,-6.362 3.9295,-4.1166 5.9878,-8.9817 2.0583,-5.0522 2.0583,-10.1045 z m 0,-14.4081 q 0,-11.4143 -5.8007,-16.2794 -5.8007,-5.0522 -15.718,-5.0522 -8.4204,0 -15.5309,2.0583 -6.9234,1.8712 -12.7241,4.678 l -3.181,-9.9173 q 5.0522,-2.9939 13.2855,-5.4265 8.4203,-2.6196 18.5247,-2.6196 17.5892,0 26.0096,8.7945 8.4203,8.7946 8.4203,23.9513 v 59.3167 h -10.4786 l -2.8068,-15.9051 q -2.0583,3.5552 -4.8651,6.7363 -2.6197,3.181 -6.3621,5.6135 -3.5552,2.4326 -8.4203,3.7424 -4.8651,1.497 -11.6014,1.497 -5.8007,0 -10.8529,-1.6841 -5.0522,-1.8712 -8.9817,-5.2393 -3.7424,-3.3682 -5.9878,-8.4204 -2.0583,-5.0522 -2.0583,-11.6014 0,-15.1566 10.4786,-22.6414 10.4787,-7.6718 29.1906,-7.6718 h 19.4604 z"
     id="path40111" /><path
     d="m 3194.3094,1881.1363 q -4.3038,-7.1105 -11.4143,-11.7885 -6.9234,-4.8651 -14.5953,-4.8651 -11.7885,0 -19.6475,8.4204 -7.859,8.2332 -7.859,25.261 0,9.1689 2.0583,15.718 2.2455,6.3621 5.8007,10.4787 3.7424,3.9295 8.4204,5.8007 4.678,1.8712 9.7302,1.8712 6.1749,0 11.2271,-2.4326 5.0522,-2.4325 8.6075,-6.7362 3.7424,-4.4909 5.6136,-10.2916 2.0583,-5.9878 2.0583,-12.9112 z m 0,45.6571 q -3.7424,7.2976 -11.6014,12.5369 -7.6719,5.0522 -17.7763,5.0522 -8.2333,0 -15.1567,-2.9939 -6.9234,-2.9939 -11.9756,-8.7946 -4.8651,-5.8006 -7.6719,-14.4081 -2.8067,-8.7946 -2.8067,-20.0218 0,-9.7301 2.6196,-18.1505 2.6197,-8.4204 7.6719,-14.5953 5.0522,-6.362 12.1627,-9.9173 7.2977,-3.5552 16.2794,-3.5552 5.2393,0 9.7302,1.684 4.4908,1.497 7.859,3.9295 3.5552,2.2454 6.1749,5.2394 2.8068,2.8067 4.4909,5.4264 l 2.4325,-14.5953 h 11.4143 v 83.6422 q 0,11.7885 -2.9939,20.0218 -2.9939,8.4203 -8.4204,13.6596 -5.4264,5.4265 -13.0983,7.859 -7.4848,2.6197 -16.6536,2.6197 -9.7302,0 -18.5248,-2.6197 -8.7946,-2.4325 -14.0339,-5.6135 l 3.3681,-11.2272 q 5.4265,3.181 12.537,5.0522 7.1105,2.0583 15.1566,2.0583 6.3621,0 11.6014,-1.4969 5.4265,-1.3098 9.1688,-5.0522 3.7424,-3.5553 5.8007,-9.7302 2.2455,-6.1749 2.2455,-15.718 z"
     id="path40113" /><path
     d="m 3244.2703,1898.7255 q 0,7.6719 1.6841,14.4082 1.684,6.5491 5.0522,11.4142 3.5552,4.678 8.7946,7.4848 5.4264,2.6197 12.9112,2.6197 7.4848,0 12.7241,-2.6197 5.4264,-2.8068 8.7946,-7.4848 3.5552,-4.8651 5.2393,-11.4142 1.6841,-6.7363 1.6841,-14.4082 0,-7.6719 -1.6841,-14.0339 -1.6841,-6.5492 -5.2393,-11.2272 -3.3682,-4.8651 -8.7946,-7.4847 -5.2393,-2.8068 -12.7241,-2.8068 -7.4848,0 -12.9112,2.8068 -5.2394,2.6196 -8.7946,7.4847 -3.3682,4.678 -5.0522,11.2272 -1.6841,6.362 -1.6841,14.0339 z m -13.6597,0 q 0,-9.9173 2.4326,-18.3377 2.6196,-8.6074 7.6718,-14.9695 5.2394,-6.362 13.0984,-9.9173 8.0461,-3.5552 18.899,-3.5552 10.8529,0 18.7119,3.5552 7.859,3.5553 13.0983,9.9173 5.2394,6.3621 7.6719,14.9695 2.6197,8.4204 2.6197,18.3377 0,9.9173 -2.6197,18.5248 -2.4325,8.6075 -7.6719,14.9695 -5.2393,6.362 -13.0983,9.9173 -7.859,3.5553 -18.7119,3.5553 -10.8529,0 -18.899,-3.5553 -7.859,-3.5553 -13.0984,-9.9173 -5.0522,-6.362 -7.6718,-14.9695 -2.4326,-8.6075 -2.4326,-18.5248 z"
     id="path40115" /><path
     d="m 3398.6435,1881.1363 q -4.3037,-7.1105 -11.4143,-11.7885 -6.9234,-4.8651 -14.5952,-4.8651 -11.7885,0 -19.6475,8.4204 -7.859,8.2332 -7.859,25.261 0,9.1689 2.0583,15.718 2.2454,6.3621 5.8007,10.4787 3.7423,3.9295 8.4203,5.8007 4.678,1.8712 9.7302,1.8712 6.1749,0 11.2271,-2.4326 5.0523,-2.4325 8.6075,-6.7362 3.7424,-4.4909 5.6136,-10.2916 2.0583,-5.9878 2.0583,-12.9112 z m 0,45.6571 q -3.7424,7.2976 -11.6014,12.5369 -7.6719,5.0522 -17.7763,5.0522 -8.2332,0 -15.1566,-2.9939 -6.9234,-2.9939 -11.9756,-8.7946 -4.8651,-5.8006 -7.6719,-14.4081 -2.8068,-8.7946 -2.8068,-20.0218 0,-9.7301 2.6197,-18.1505 2.6196,-8.4204 7.6718,-14.5953 5.0523,-6.362 12.1628,-9.9173 7.2976,-3.5552 16.2793,-3.5552 5.2394,0 9.7302,1.684 4.4909,1.497 7.859,3.9295 3.5553,2.2454 6.1749,5.2394 2.8068,2.8067 4.4909,5.4264 l 2.4325,-14.5953 h 11.4143 v 83.6422 q 0,11.7885 -2.9939,20.0218 -2.9939,8.4203 -8.4204,13.6596 -5.4264,5.4265 -13.0983,7.859 -7.4847,2.6197 -16.6536,2.6197 -9.7302,0 -18.5248,-2.6197 -8.7945,-2.4325 -14.0339,-5.6135 l 3.3682,-11.2272 q 5.4264,3.181 12.5369,5.0522 7.1106,2.0583 15.1567,2.0583 6.362,0 11.6014,-1.4969 5.4264,-1.3098 9.1688,-5.0522 3.7424,-3.5553 5.8007,-9.7302 2.2454,-6.1749 2.2454,-15.718 z"
     id="path40117" /><path
     d="m 3455.5278,1944.0083 h -13.8468 v -90.3785 h 13.8468 z m -16.4665,-118.4463 q 0,-3.9295 2.4326,-6.7363 2.4325,-2.8068 7.1105,-2.8068 4.8651,0 7.1105,2.8068 2.4326,2.8068 2.4326,6.7363 0,3.9295 -2.4326,6.7363 -2.2454,2.6196 -7.1105,2.6196 -4.678,0 -7.1105,-2.6196 -2.4326,-2.8068 -2.4326,-6.7363 z"
     id="path40119" /><path
     d="m 3537.4858,1898.9126 h -19.6475 q -12.9112,0 -19.4604,5.2394 -6.5491,5.0522 -6.5491,14.5952 0,7.859 4.6779,11.9757 4.8651,4.1166 11.9757,4.1166 6.5491,0 11.7884,-2.4326 5.4265,-2.4325 9.1689,-6.362 3.9295,-4.1166 5.9878,-8.9817 2.0583,-5.0522 2.0583,-10.1045 z m 0,-14.4081 q 0,-11.4143 -5.8007,-16.2794 -5.8007,-5.0522 -15.718,-5.0522 -8.4203,0 -15.5309,2.0583 -6.9234,1.8712 -12.7241,4.678 l -3.181,-9.9173 q 5.0522,-2.9939 13.2855,-5.4265 8.4203,-2.6196 18.5247,-2.6196 17.5892,0 26.0096,8.7945 8.4203,8.7946 8.4203,23.9513 v 59.3167 h -10.4786 l -2.8068,-15.9051 q -2.0583,3.5552 -4.8651,6.7363 -2.6197,3.181 -6.362,5.6135 -3.5553,2.4326 -8.4204,3.7424 -4.8651,1.497 -11.6014,1.497 -5.8007,0 -10.8529,-1.6841 -5.0522,-1.8712 -8.9817,-5.2393 -3.7424,-3.3682 -5.9878,-8.4204 -2.0583,-5.0522 -2.0583,-11.6014 0,-15.1566 10.4787,-22.6414 10.4786,-7.6718 29.1905,-7.6718 h 19.4604 z"
     id="path40121" /><path
     d="m 3634.7876,1905.0875 q 1.1228,14.034 8.7946,21.7059 7.859,7.6718 22.4543,7.6718 6.1749,0 12.537,-1.3098 6.362,-1.3098 11.4142,-3.9295 l 3.3682,10.2915 q -5.8007,2.9939 -12.9112,4.4909 -6.9234,1.6841 -15.5309,1.6841 -11.04,0 -19.2733,-3.3682 -8.0461,-3.3681 -13.4725,-9.3559 -5.2394,-6.1749 -8.0461,-14.7824 -2.6197,-8.7946 -2.6197,-19.4604 0,-9.9173 2.4325,-18.5248 2.4326,-8.6075 7.2977,-14.7824 5.0522,-6.362 12.7241,-9.9173 7.859,-3.5552 18.5248,-3.5552 17.5891,0 26.5708,10.1044 8.9818,9.9173 8.9818,27.3194 0,4.4908 -0.5614,8.4203 -0.5614,3.9295 -1.4969,7.2976 z m 27.6937,-42.476 q -7.1106,0 -12.1628,2.4326 -5.0522,2.4325 -8.4203,6.7363 -3.3682,4.3037 -5.0523,10.2915 -1.684,5.8007 -2.0583,12.7241 h 50.1479 q 0.1871,-0.3742 0.1871,-2.6197 0,-2.2454 0,-2.8067 0,-12.9113 -5.2393,-19.8347 -5.2393,-6.9234 -17.402,-6.9234 z"
     id="path40123" /><path
     d="m 3852.2197,1856.8108 q 0,8.6075 -2.9939,15.9052 -2.9939,7.1105 -8.6074,12.5369 -5.4265,5.2394 -13.2855,8.2333 -7.859,2.9939 -17.5892,2.9939 h -25.2611 v 47.5282 h -14.221 v -126.1182 h 40.6048 q 9.7302,0 17.4021,2.9939 7.859,2.9939 13.0983,8.2332 5.2394,5.2394 8.0461,12.3499 2.8068,7.1105 2.8068,15.3437 z m -14.221,0 q 0,-11.9756 -6.9234,-18.899 -6.9234,-6.9234 -20.2089,-6.9234 h -26.3838 v 52.3933 h 25.2611 q 13.2855,0 20.7702,-7.1105 7.4848,-7.1105 7.4848,-19.4604 z"
     id="path40125" /><path
     d="m 3896.7539,1934.8395 q 11.4143,0 16.2794,-4.1166 4.8651,-4.3038 4.8651,-10.2916 0,-7.4848 -6.3621,-11.2271 -6.362,-3.9295 -15.5309,-6.5492 -5.9878,-1.6841 -11.04,-3.9295 -4.8651,-2.2454 -8.6075,-5.4264 -3.5552,-3.1811 -5.6135,-7.4848 -1.8712,-4.3037 -1.8712,-10.2916 0,-11.4142 8.6075,-17.402 8.7945,-6.1749 23.3898,-6.1749 7.859,0 14.9695,1.4969 7.1106,1.497 12.537,4.1166 l -3.181,10.6658 q -5.0522,-2.4325 -10.8529,-3.7424 -5.8007,-1.4969 -12.3499,-1.4969 -10.1044,0 -14.9695,3.3681 -4.8651,3.3682 -4.8651,8.9817 0,6.5492 5.0522,9.9173 5.0523,3.3682 13.4726,5.9878 15.1566,4.678 22.8285,11.2272 7.859,6.362 7.859,18.1505 0,11.4143 -8.2332,18.3377 -8.2332,6.7363 -25.8224,6.7363 -8.6075,0 -16.0923,-1.497 -7.4847,-1.4969 -12.5369,-4.3037 l 3.181,-10.2916 q 4.8651,2.2455 11.4142,3.7424 6.5492,1.497 13.4726,1.497 z"
     id="path40127" /><path
     d="m 3969.5434,1944.0083 h -13.8468 v -90.3785 h 13.8468 z m -16.4665,-118.4463 q 0,-3.9295 2.4326,-6.7363 2.4325,-2.8068 7.1105,-2.8068 4.8651,0 7.1105,2.8068 2.4325,2.8068 2.4325,6.7363 0,3.9295 -2.4325,6.7363 -2.2454,2.6196 -7.1105,2.6196 -4.678,0 -7.1105,-2.6196 -2.4326,-2.8068 -2.4326,-6.7363 z"
     id="path40129" /><path
     d="m 4036.3447,1863.1729 q -7.6719,0 -13.4726,2.6197 -5.6136,2.6196 -9.356,7.4847 -3.5552,4.678 -5.4264,11.2272 -1.6841,6.5491 -1.6841,14.221 0,7.6719 1.6841,14.221 1.8712,6.5492 5.6136,11.4143 3.7423,4.678 9.543,7.4848 5.8007,2.6196 13.8468,2.6196 5.8007,0 11.6014,-1.3098 5.9878,-1.497 11.2272,-4.1166 l 3.181,10.2915 q -5.8007,2.9939 -12.3499,4.678 -6.362,1.6841 -14.7824,1.6841 -11.04,0 -19.0861,-3.5553 -8.0461,-3.5553 -13.4726,-9.9173 -5.4264,-6.362 -8.0461,-14.9695 -2.6197,-8.6075 -2.6197,-18.5248 0,-9.9173 2.6197,-18.5248 2.6197,-8.6075 8.0461,-14.7824 5.4265,-6.362 13.6597,-9.9173 8.2332,-3.5552 19.2733,-3.5552 7.6718,0 14.0339,1.684 6.362,1.497 11.7885,4.1166 l -3.181,10.4787 q -4.8651,-2.2454 -10.4787,-3.5553 -5.6136,-1.4969 -12.1627,-1.4969 z"
     id="path40131" /><path
     d="m 4086.8669,1898.7255 q 0,7.6719 1.6841,14.4082 1.6841,6.5491 5.0522,11.4142 3.5553,4.678 8.7946,7.4848 5.4265,2.6197 12.9112,2.6197 7.4848,0 12.7241,-2.6197 5.4265,-2.8068 8.7946,-7.4848 3.5553,-4.8651 5.2393,-11.4142 1.6841,-6.7363 1.6841,-14.4082 0,-7.6719 -1.6841,-14.0339 -1.684,-6.5492 -5.2393,-11.2272 -3.3681,-4.8651 -8.7946,-7.4847 -5.2393,-2.8068 -12.7241,-2.8068 -7.4847,0 -12.9112,2.8068 -5.2393,2.6196 -8.7946,7.4847 -3.3681,4.678 -5.0522,11.2272 -1.6841,6.362 -1.6841,14.0339 z m -13.6597,0 q 0,-9.9173 2.4326,-18.3377 2.6196,-8.6074 7.6719,-14.9695 5.2393,-6.362 13.0983,-9.9173 8.0461,-3.5552 18.899,-3.5552 10.8529,0 18.7119,3.5552 7.859,3.5553 13.0983,9.9173 5.2394,6.3621 7.6719,14.9695 2.6197,8.4204 2.6197,18.3377 0,9.9173 -2.6197,18.5248 -2.4325,8.6075 -7.6719,14.9695 -5.2393,6.362 -13.0983,9.9173 -7.859,3.5553 -18.7119,3.5553 -10.8529,0 -18.899,-3.5553 -7.859,-3.5553 -13.0983,-9.9173 -5.0523,-6.362 -7.6719,-14.9695 -2.4326,-8.6075 -2.4326,-18.5248 z"
     id="path40133" /><path
     d="m 4194.4604,1944.0083 h -13.8468 v -126.1182 h 13.8468 z"
     id="path40135" /><path
     d="m 4231.3226,1898.7255 q 0,7.6719 1.6841,14.4082 1.6841,6.5491 5.0522,11.4142 3.5553,4.678 8.7946,7.4848 5.4264,2.6197 12.9112,2.6197 7.4848,0 12.7241,-2.6197 5.4264,-2.8068 8.7946,-7.4848 3.5552,-4.8651 5.2393,-11.4142 1.6841,-6.7363 1.6841,-14.4082 0,-7.6719 -1.6841,-14.0339 -1.6841,-6.5492 -5.2393,-11.2272 -3.3682,-4.8651 -8.7946,-7.4847 -5.2393,-2.8068 -12.7241,-2.8068 -7.4848,0 -12.9112,2.8068 -5.2393,2.6196 -8.7946,7.4847 -3.3681,4.678 -5.0522,11.2272 -1.6841,6.362 -1.6841,14.0339 z m -13.6597,0 q 0,-9.9173 2.4326,-18.3377 2.6196,-8.6074 7.6718,-14.9695 5.2394,-6.362 13.0984,-9.9173 8.0461,-3.5552 18.899,-3.5552 10.8529,0 18.7119,3.5552 7.859,3.5553 13.0983,9.9173 5.2394,6.3621 7.6719,14.9695 2.6197,8.4204 2.6197,18.3377 0,9.9173 -2.6197,18.5248 -2.4325,8.6075 -7.6719,14.9695 -5.2393,6.362 -13.0983,9.9173 -7.859,3.5553 -18.7119,3.5553 -10.8529,0 -18.899,-3.5553 -7.859,-3.5553 -13.0984,-9.9173 -5.0522,-6.362 -7.6718,-14.9695 -2.4326,-8.6075 -2.4326,-18.5248 z"
     id="path40137" /><path
     d="m 4385.6958,1881.1363 q -4.3037,-7.1105 -11.4143,-11.7885 -6.9234,-4.8651 -14.5952,-4.8651 -11.7885,0 -19.6475,8.4204 -7.859,8.2332 -7.859,25.261 0,9.1689 2.0583,15.718 2.2454,6.3621 5.8007,10.4787 3.7424,3.9295 8.4203,5.8007 4.678,1.8712 9.7302,1.8712 6.1749,0 11.2272,-2.4326 5.0522,-2.4325 8.6074,-6.7362 3.7424,-4.4909 5.6136,-10.2916 2.0583,-5.9878 2.0583,-12.9112 z m 0,45.6571 q -3.7424,7.2976 -11.6014,12.5369 -7.6718,5.0522 -17.7763,5.0522 -8.2332,0 -15.1566,-2.9939 -6.9234,-2.9939 -11.9756,-8.7946 -4.8651,-5.8006 -7.6719,-14.4081 -2.8068,-8.7946 -2.8068,-20.0218 0,-9.7301 2.6197,-18.1505 2.6196,-8.4204 7.6719,-14.5953 5.0522,-6.362 12.1627,-9.9173 7.2976,-3.5552 16.2793,-3.5552 5.2394,0 9.7302,1.684 4.4909,1.497 7.859,3.9295 3.5553,2.2454 6.175,5.2394 2.8067,2.8067 4.4908,5.4264 l 2.4326,-14.5953 h 11.4142 v 83.6422 q 0,11.7885 -2.9939,20.0218 -2.9939,8.4203 -8.4203,13.6596 -5.4265,5.4265 -13.0984,7.859 -7.4847,2.6197 -16.6536,2.6197 -9.7302,0 -18.5247,-2.6197 -8.7946,-2.4325 -14.034,-5.6135 l 3.3682,-11.2272 q 5.4264,3.181 12.5369,5.0522 7.1106,2.0583 15.1567,2.0583 6.362,0 11.6014,-1.4969 5.4264,-1.3098 9.1688,-5.0522 3.7424,-3.5553 5.8007,-9.7302 2.2454,-6.1749 2.2454,-15.718 z"
     id="path40139" /><path
     d="m 4442.5801,1944.0083 h -13.8468 v -90.3785 h 13.8468 z m -16.4665,-118.4463 q 0,-3.9295 2.4326,-6.7363 2.4325,-2.8068 7.1105,-2.8068 4.8651,0 7.1105,2.8068 2.4326,2.8068 2.4326,6.7363 0,3.9295 -2.4326,6.7363 -2.2454,2.6196 -7.1105,2.6196 -4.678,0 -7.1105,-2.6196 -2.4326,-2.8068 -2.4326,-6.7363 z"
     id="path40141" /><path
     d="m 4524.5382,1898.9126 h -19.6475 q -12.9112,0 -19.4604,5.2394 -6.5492,5.0522 -6.5492,14.5952 0,7.859 4.678,11.9757 4.8651,4.1166 11.9756,4.1166 6.5492,0 11.7885,-2.4326 5.4265,-2.4325 9.1688,-6.362 3.9295,-4.1166 5.9879,-8.9817 2.0583,-5.0522 2.0583,-10.1045 z m 0,-14.4081 q 0,-11.4143 -5.8007,-16.2794 -5.8007,-5.0522 -15.718,-5.0522 -8.4204,0 -15.5309,2.0583 -6.9234,1.8712 -12.7241,4.678 l -3.181,-9.9173 q 5.0522,-2.9939 13.2854,-5.4265 8.4204,-2.6196 18.5248,-2.6196 17.5892,0 26.0096,8.7945 8.4203,8.7946 8.4203,23.9513 v 59.3167 h -10.4787 l -2.8067,-15.9051 q -2.0583,3.5552 -4.8651,6.7363 -2.6197,3.181 -6.3621,5.6135 -3.5552,2.4326 -8.4203,3.7424 -4.8651,1.497 -11.6014,1.497 -5.8007,0 -10.8529,-1.6841 -5.0522,-1.8712 -8.9817,-5.2393 -3.7424,-3.3682 -5.9878,-8.4204 -2.0583,-5.0522 -2.0583,-11.6014 0,-15.1566 10.4786,-22.6414 10.4787,-7.6718 29.1906,-7.6718 h 19.4604 z"
     id="path40143" /><path
     d="m 4684.899,1909.3913 h -53.7031 l -12.537,34.617 h -14.5953 l 46.9669,-126.1182 h 14.2211 l 46.9668,126.1182 h -14.5953 z m -48.838,-12.7241 h 44.1601 l -13.8468,-37.4238 q -2.0583,-6.3621 -4.1167,-12.537 -1.8711,-6.362 -3.9294,-12.7241 h -0.3743 q -2.0583,6.3621 -4.1166,12.7241 -1.8712,6.1749 -3.9295,12.537 z"
     id="path40145" /><path
     d="m 4744.4028,1900.9709 q 0,6.9234 2.0583,12.9112 2.2454,5.8007 5.9878,10.2916 3.7424,4.3037 8.7946,6.7363 5.0522,2.4325 10.8529,2.4325 5.0522,0 9.7302,-1.8712 4.678,-1.8712 8.2332,-5.9878 3.5553,-4.3037 5.6136,-11.04 2.2454,-6.9234 2.2454,-16.8407 0,-16.8407 -6.7362,-24.8868 -6.7363,-8.2333 -17.4021,-8.2333 -8.6075,0 -16.4665,4.678 -7.6719,4.4909 -12.9112,11.6014 z m -2.4325,-47.3411 2.4325,14.5953 q 1.8712,-2.6197 4.8651,-5.4264 3.181,-2.994 7.1105,-5.2394 4.1166,-2.4325 9.1689,-3.9295 5.0522,-1.684 10.6657,-1.684 8.7946,0 15.3438,3.7423 6.7363,3.5553 11.04,9.9173 4.4909,6.175 6.7363,14.5953 2.2454,8.2333 2.2454,17.4021 0,11.9756 -2.8068,20.9573 -2.6196,8.9817 -7.6718,15.1567 -4.8651,5.9878 -11.7885,8.9817 -6.9234,2.9939 -15.1567,2.9939 -10.2915,0 -18.1505,-5.0522 -7.859,-5.2394 -11.6014,-12.537 v 51.6448 h -13.8468 v -126.1182 z"
     id="path40147" /><path
     d="m 4848.2539,1900.9709 q 0,6.9234 2.0583,12.9112 2.2454,5.8007 5.9878,10.2916 3.7424,4.3037 8.7946,6.7363 5.0522,2.4325 10.8529,2.4325 5.0522,0 9.7302,-1.8712 4.678,-1.8712 8.2332,-5.9878 3.5553,-4.3037 5.6136,-11.04 2.2454,-6.9234 2.2454,-16.8407 0,-16.8407 -6.7363,-24.8868 -6.7362,-8.2333 -17.402,-8.2333 -8.6075,0 -16.4665,4.678 -7.6719,4.4909 -12.9112,11.6014 z m -2.4326,-47.3411 2.4326,14.5953 q 1.8712,-2.6197 4.8651,-5.4264 3.181,-2.994 7.1105,-5.2394 4.1166,-2.4325 9.1688,-3.9295 5.0522,-1.684 10.6658,-1.684 8.7946,0 15.3438,3.7423 6.7363,3.5553 11.04,9.9173 4.4909,6.175 6.7363,14.5953 2.2454,8.2333 2.2454,17.4021 0,11.9756 -2.8068,20.9573 -2.6196,8.9817 -7.6719,15.1567 -4.8651,5.9878 -11.7885,8.9817 -6.9234,2.9939 -15.1566,2.9939 -10.2915,0 -18.1505,-5.0522 -7.859,-5.2394 -11.6014,-12.537 v 51.6448 h -13.8468 v -126.1182 z"
     id="path40149" /><path
     d="m 4952.8534,1944.0083 h -13.8468 v -126.1182 h 13.8468 z"
     id="path40151" /><path
     d="m 4996.6393,1944.0083 h -13.8468 v -90.3785 h 13.8468 z m -16.4664,-118.4463 q 0,-3.9295 2.4325,-6.7363 2.4325,-2.8068 7.1105,-2.8068 4.8651,0 7.1105,2.8068 2.4326,2.8068 2.4326,6.7363 0,3.9295 -2.4326,6.7363 -2.2454,2.6196 -7.1105,2.6196 -4.678,0 -7.1105,-2.6196 -2.4325,-2.8068 -2.4325,-6.7363 z"
     id="path40153" /><path
     d="m 5063.4406,1863.1729 q -7.6719,0 -13.4726,2.6197 -5.6135,2.6196 -9.3559,7.4847 -3.5553,4.678 -5.4265,11.2272 -1.684,6.5491 -1.684,14.221 0,7.6719 1.684,14.221 1.8712,6.5492 5.6136,11.4143 3.7424,4.678 9.5431,7.4848 5.8007,2.6196 13.8468,2.6196 5.8007,0 11.6014,-1.3098 5.9878,-1.497 11.2271,-4.1166 l 3.181,10.2915 q -5.8007,2.9939 -12.3498,4.678 -6.3621,1.6841 -14.7824,1.6841 -11.0401,0 -19.0862,-3.5553 -8.0461,-3.5553 -13.4725,-9.9173 -5.4265,-6.362 -8.0462,-14.9695 -2.6196,-8.6075 -2.6196,-18.5248 0,-9.9173 2.6196,-18.5248 2.6197,-8.6075 8.0462,-14.7824 5.4264,-6.362 13.6596,-9.9173 8.2333,-3.5552 19.2733,-3.5552 7.6719,0 14.0339,1.684 6.3621,1.497 11.7885,4.1166 l -3.181,10.4787 q -4.8651,-2.2454 -10.4787,-3.5553 -5.6135,-1.4969 -12.1627,-1.4969 z"
     id="path40155" /><path
     d="m 5164.1107,1898.9126 h -19.6475 q -12.9112,0 -19.4604,5.2394 -6.5492,5.0522 -6.5492,14.5952 0,7.859 4.678,11.9757 4.8651,4.1166 11.9756,4.1166 6.5492,0 11.7885,-2.4326 5.4265,-2.4325 9.1689,-6.362 3.9295,-4.1166 5.9878,-8.9817 2.0583,-5.0522 2.0583,-10.1045 z m 0,-14.4081 q 0,-11.4143 -5.8007,-16.2794 -5.8007,-5.0522 -15.718,-5.0522 -8.4204,0 -15.5309,2.0583 -6.9234,1.8712 -12.7241,4.678 l -3.181,-9.9173 q 5.0522,-2.9939 13.2854,-5.4265 8.4204,-2.6196 18.5248,-2.6196 17.5892,0 26.0096,8.7945 8.4203,8.7946 8.4203,23.9513 v 59.3167 h -10.4786 l -2.8068,-15.9051 q -2.0583,3.5552 -4.8651,6.7363 -2.6197,3.181 -6.3621,5.6135 -3.5552,2.4326 -8.4203,3.7424 -4.8651,1.497 -11.6014,1.497 -5.8007,0 -10.8529,-1.6841 -5.0522,-1.8712 -8.9817,-5.2393 -3.7424,-3.3682 -5.9878,-8.4204 -2.0583,-5.0522 -2.0583,-11.6014 0,-15.1566 10.4786,-22.6414 10.4787,-7.6718 29.1906,-7.6718 h 19.4604 z"
     id="path40157" /><path
     d="m 5222.492,1919.3086 q 0,7.4848 2.2455,11.4143 2.2454,3.7423 9.3559,3.7423 4.3038,0 7.859,-1.1227 3.7424,-1.1227 6.5492,-2.6196 l 3.181,9.9173 q -3.7424,2.4325 -8.2332,3.7423 -4.4909,1.3099 -11.4143,1.3099 -11.7885,0 -17.4021,-6.175 -5.6135,-6.1749 -5.6135,-20.0217 v -54.6387 h -14.4082 v -11.2272 h 14.4082 l 3.5552,-25.8224 h 9.9173 v 25.8224 h 27.8808 v 11.2272 h -27.8808 z"
     id="path40159" /><path
     d="m 5323.5365,1898.9126 h -19.6475 q -12.9113,0 -19.4604,5.2394 -6.5492,5.0522 -6.5492,14.5952 0,7.859 4.678,11.9757 4.8651,4.1166 11.9756,4.1166 6.5492,0 11.7885,-2.4326 5.4265,-2.4325 9.1688,-6.362 3.9295,-4.1166 5.9878,-8.9817 2.0584,-5.0522 2.0584,-10.1045 z m 0,-14.4081 q 0,-11.4143 -5.8007,-16.2794 -5.8007,-5.0522 -15.718,-5.0522 -8.4204,0 -15.5309,2.0583 -6.9234,1.8712 -12.7241,4.678 l -3.181,-9.9173 q 5.0522,-2.9939 13.2854,-5.4265 8.4204,-2.6196 18.5248,-2.6196 17.5892,0 26.0095,8.7945 8.4204,8.7946 8.4204,23.9513 v 59.3167 h -10.4787 l -2.8067,-15.9051 q -2.0584,3.5552 -4.8651,6.7363 -2.6197,3.181 -6.3621,5.6135 -3.5552,2.4326 -8.4203,3.7424 -4.8651,1.497 -11.6014,1.497 -5.8007,0 -10.8529,-1.6841 -5.0522,-1.8712 -8.9817,-5.2393 -3.7424,-3.3682 -5.9878,-8.4204 -2.0584,-5.0522 -2.0584,-11.6014 0,-15.1566 10.4787,-22.6414 10.4787,-7.6718 29.1906,-7.6718 h 19.4604 z"
     id="path40161" /></g>
</svg>
