<?xml version="1.0" encoding="UTF-8" standalone="no"?>
<!DOCTYPE svg PUBLIC "-//W3C//DTD SVG 1.1//EN" "http://www.w3.org/Graphics/SVG/1.1/DTD/svg11.dtd">
<svg width="100%" height="100%" viewBox="0 0 6229 2552" version="1.1" xmlns="http://www.w3.org/2000/svg" xmlns:xlink="http://www.w3.org/1999/xlink" xml:space="preserve" xmlns:serif="http://www.serif.com/" style="fill-rule:evenodd;clip-rule:evenodd;stroke-linejoin:round;stroke-miterlimit:2;">
    <g transform="matrix(1,0,0,1,-6853,-4546)">
        <g id="Tavola-da-disegno9" serif:id="Tavola da disegno9" transform="matrix(1,0,0,1,-0.599048,-0.807845)">
            <rect x="6853.6" y="4546.81" width="6228.77" height="2551.69" style="fill:none;"/>
            <clipPath id="_clip1">
                <rect x="6853.6" y="4546.81" width="6228.77" height="2551.69"/>
            </clipPath>
            <g clip-path="url(#_clip1)">
                <g id="Tavola-da-disegno5" serif:id="Tavola da disegno5" transform="matrix(1.20547,0,0,1,-170.018,-2433.78)">
                    <rect x="5909.92" y="6969.69" width="5281.1" height="2447.95" style="fill:none;"/>
                    <g transform="matrix(0.0702749,-0.969464,0.804221,0.0847144,5750.68,10373.4)">
                        <path d="M2192.61,397.961C2183.1,381.451 2165.5,371.264 2146.45,371.231C2127.39,371.198 2109.76,381.323 2100.19,397.8L1449.23,1518.26C1439.91,1534.29 1439.88,1554.09 1449.14,1570.15C1458.4,1586.22 1475.55,1596.11 1494.1,1596.09C1708.01,1595.78 2598.81,1594.49 2798.56,1594.2C2815.79,1594.17 2831.7,1584.97 2840.31,1570.04C2848.92,1555.12 2848.93,1536.74 2840.32,1521.81L2192.61,397.961Z" style="fill:rgb(150,11,30);fill-opacity:0.8;"/>
                    </g>
                    <g transform="matrix(0.66293,0.555345,-0.460687,0.799143,6394.7,6332.02)">
                        <path d="M2192.61,397.961C2183.1,381.451 2165.5,371.264 2146.45,371.231C2127.39,371.198 2109.76,381.323 2100.19,397.8C1991.75,584.447 1555.19,1335.88 1449.23,1518.26C1439.91,1534.29 1439.88,1554.09 1449.14,1570.15C1458.4,1586.22 1475.55,1596.11 1494.1,1596.09C1708.01,1595.78 2598.81,1594.49 2798.56,1594.2C2815.79,1594.17 2831.7,1584.97 2840.31,1570.04C2848.92,1555.12 2848.93,1536.74 2840.32,1521.81L2192.61,397.961Z" style="fill:rgb(197,170,171);fill-opacity:0.85;"/>
                    </g>
                    <g transform="matrix(0.662685,0.55577,-0.46104,0.798848,6592.79,5757.93)">
                        <path d="M2192.61,397.961C2183.1,381.451 2165.5,371.264 2146.45,371.231C2127.39,371.198 2109.76,381.323 2100.19,397.8L1449.23,1518.26C1439.91,1534.29 1439.88,1554.09 1449.14,1570.15C1458.4,1586.22 1475.55,1596.11 1494.1,1596.09C1708.01,1595.78 2598.81,1594.49 2798.56,1594.2C2815.79,1594.17 2831.7,1584.97 2840.31,1570.04C2848.92,1555.12 2848.93,1536.74 2840.32,1521.81L2192.61,397.961Z" style="fill:rgb(109,0,6);fill-opacity:0.7;"/>
                    </g>
                    <g transform="matrix(0.662172,0.556659,-0.461777,0.798229,6229.5,5795)">
                        <path d="M2192.61,397.961C2183.1,381.451 2165.5,371.264 2146.45,371.231C2127.39,371.198 2109.76,381.323 2100.19,397.8C1991.75,584.447 1555.19,1335.88 1449.23,1518.26C1439.91,1534.29 1439.88,1554.09 1449.14,1570.15C1458.4,1586.22 1475.55,1596.11 1494.1,1596.09C1708.01,1595.78 2598.81,1594.49 2798.56,1594.2C2815.79,1594.17 2831.7,1584.97 2840.31,1570.04C2848.92,1555.12 2848.93,1536.74 2840.32,1521.81L2192.61,397.961Z" style="fill:rgb(227,207,208);fill-opacity:0.9;"/>
                    </g>
                    <g id="Livello5" transform="matrix(0.846681,0,0,1.02065,921.139,-105.435)">
                        <g transform="matrix(1,0,0,1,6868.11,1129.64)">
                            <g transform="matrix(1,0,0,1,1440.68,7340.1)">
                                <text x="0px" y="0px" style="font-family:'SukhumvitSet-Text', 'Sukhumvit Set';font-size:1041.67px;fill:rgb(164,52,58);">F</text>
                            </g>
                            <g transform="matrix(1,0,0,1,1912.55,7340.1)">
                                <text x="0px" y="0px" style="font-family:'SukhumvitSet-Text', 'Sukhumvit Set';font-size:1041.67px;fill:rgb(164,52,58);">I</text>
                            </g>
                            <g transform="matrix(1,0,0,1,2083.39,7340.1)">
                                <text x="0px" y="0px" style="font-family:'SukhumvitSet-Text', 'Sukhumvit Set';font-size:1041.67px;fill:rgb(164,52,58);">S</text>
                            </g>
                            <g transform="matrix(1,0,0,1,2570.89,7340.1)">
                                <text x="0px" y="0px" style="font-family:'SukhumvitSet-Text', 'Sukhumvit Set';font-size:1041.67px;fill:rgb(164,52,58);">P</text>
                            </g>
                            <g transform="matrix(1,0,0,1,3102.14,7340.1)">
                                <text x="0px" y="0px" style="font-family:'SukhumvitSet-Text', 'Sukhumvit Set';font-size:1041.67px;fill:rgb(164,52,58);">P</text>
                            </g>
                            <g transform="matrix(1,0,0,1,3524.01,7340.1)">
                                <text x="0px" y="0px" style="font-family:'SukhumvitSet-Text', 'Sukhumvit Set';font-size:1041.67px;fill:rgb(164,52,58);">A</text>
                            </g>
                        </g>
                        <g transform="matrix(1,0,0,1,-162.93,373.405)">
                            <g>
                                <g transform="matrix(1,0,0,1,8529.97,8307.26)">
                                    <text x="0px" y="0px" style="font-family:'SukhumvitSet-Text', 'Sukhumvit Set';font-size:183.333px;fill:rgb(76,88,105);">D</text>
                                </g>
                                <g transform="matrix(1,0,0,1,8647.12,8307.26)">
                                    <text x="0px" y="0px" style="font-family:'SukhumvitSet-Text', 'Sukhumvit Set';font-size:183.333px;fill:rgb(76,88,105);">ip<tspan x="143.55px 235.766px 305.249px 369.233px " y="0px 0px 0px 0px ">arti</tspan>ment<tspan x="814.915px 913.548px " y="0px 0px ">o </tspan>di Filosoﬁa, Sociologia,</text>
                                </g>
                            </g>
                            <g>
                                <g transform="matrix(1,0,0,1,8529.97,8473.93)">
                                    <text x="0px" y="0px" style="font-family:'SukhumvitSet-Text', 'Sukhumvit Set';font-size:183.333px;fill:rgb(76,88,105);">P</text>
                                </g>
                                <g transform="matrix(1,0,0,1,8627.13,8473.93)">
                                    <text x="0px" y="0px" style="font-family:'SukhumvitSet-Text', 'Sukhumvit Set';font-size:183.333px;fill:rgb(76,88,105);">edagogia e P<tspan x="1010.17px 1089.55px 1132.45px 1211.28px 1309.91px " y="0px 0px 0px 0px 0px ">sicol</tspan>ogia Applic<tspan x="2221.45px 2313.66px " y="0px 0px ">at</tspan>a</text>
                                </g>
                            </g>
                        </g>
                    </g>
                </g>
            </g>
        </g>
    </g>
</svg>
